<svg xmlns="http://www.w3.org/2000/svg" xmlns:xlink="http://www.w3.org/1999/xlink" width="210" zoomAndPan="magnify" viewBox="0 0 157.5 37.5" height="50" preserveAspectRatio="xMidYMid meet" version="1.0"><defs><g/><clipPath id="2bb22fc296"><path d="M 0.789062 0 L 156.21875 0 L 156.21875 37.007812 L 0.789062 37.007812 Z M 0.789062 0 " clip-rule="nonzero"/></clipPath><clipPath id="9ce942225e"><path d="M 2.523438 0 L 154.480469 0 C 155.441406 0 156.21875 0.777344 156.21875 1.734375 L 156.21875 35.273438 C 156.21875 36.230469 155.441406 37.007812 154.480469 37.007812 L 2.523438 37.007812 C 1.566406 37.007812 0.789062 36.230469 0.789062 35.273438 L 0.789062 1.734375 C 0.789062 0.777344 1.566406 0 2.523438 0 Z M 2.523438 0 " clip-rule="nonzero"/></clipPath></defs><g clip-path="url(#2bb22fc296)"><g clip-path="url(#9ce942225e)"><path fill="#000000" d="M 0.789062 0 L 156.1875 0 L 156.1875 37.007812 L 0.789062 37.007812 Z M 0.789062 0 " fill-opacity="1" fill-rule="nonzero"/></g></g><g fill="#ffffff" fill-opacity="1"><g transform="translate(16.789929, 20.266527)"><g><path d="M 4.195312 0 C 5.324219 0 6.441406 -0.652344 6.441406 -2.039062 C 6.441406 -2.832031 5.859375 -3.492188 5.148438 -3.71875 C 5.636719 -3.925781 6.039062 -4.503906 6.039062 -5.125 C 6.039062 -6.296875 5.175781 -7.027344 3.898438 -7.027344 L 0.835938 -7.027344 L 0.835938 0 Z M 2.132812 -5.921875 L 3.84375 -5.921875 C 4.355469 -5.921875 4.742188 -5.527344 4.742188 -5.011719 C 4.742188 -4.488281 4.355469 -4.089844 3.839844 -4.089844 L 2.132812 -4.089844 Z M 2.132812 -3.125 L 4.089844 -3.125 C 4.679688 -3.125 5.125 -2.679688 5.125 -2.136719 C 5.125 -1.535156 4.679688 -1.109375 4.082031 -1.109375 L 2.132812 -1.109375 Z M 2.132812 -3.125 "/></g></g><g transform="translate(23.562212, 20.266527)"><g><path d="M 3.144531 0.160156 C 4.785156 0.160156 5.957031 -1.089844 5.957031 -2.65625 C 5.957031 -4.210938 4.785156 -5.46875 3.152344 -5.46875 C 1.523438 -5.46875 0.355469 -4.203125 0.355469 -2.65625 C 0.355469 -1.09375 1.527344 0.160156 3.144531 0.160156 Z M 3.15625 -1.003906 C 2.261719 -1.003906 1.597656 -1.695312 1.597656 -2.65625 C 1.597656 -3.609375 2.261719 -4.3125 3.15625 -4.3125 C 4.050781 -4.3125 4.714844 -3.609375 4.714844 -2.65625 C 4.714844 -1.695312 4.050781 -1.003906 3.15625 -1.003906 Z M 3.15625 -1.003906 "/></g></g><g transform="translate(29.874744, 20.266527)"><g><path d="M 3.144531 0.160156 C 4.785156 0.160156 5.957031 -1.089844 5.957031 -2.65625 C 5.957031 -4.210938 4.785156 -5.46875 3.152344 -5.46875 C 1.523438 -5.46875 0.355469 -4.203125 0.355469 -2.65625 C 0.355469 -1.09375 1.527344 0.160156 3.144531 0.160156 Z M 3.15625 -1.003906 C 2.261719 -1.003906 1.597656 -1.695312 1.597656 -2.65625 C 1.597656 -3.609375 2.261719 -4.3125 3.15625 -4.3125 C 4.050781 -4.3125 4.714844 -3.609375 4.714844 -2.65625 C 4.714844 -1.695312 4.050781 -1.003906 3.15625 -1.003906 Z M 3.15625 -1.003906 "/></g></g><g transform="translate(36.187277, 20.266527)"><g><path d="M 5.605469 0 L 3.730469 -3.207031 L 5.378906 -5.308594 L 3.855469 -5.308594 L 1.984375 -2.820312 L 1.984375 -7.273438 L 0.734375 -7.273438 L 0.734375 0 L 1.984375 0 L 1.984375 -1.476562 L 2.820312 -2.390625 L 4.199219 0 Z M 5.605469 0 "/></g></g><g transform="translate(41.848926, 20.266527)"><g/></g><g transform="translate(44.426629, 20.266527)"><g><path d="M 2.855469 0.160156 C 3.71875 0.160156 4.421875 -0.234375 4.769531 -0.894531 L 4.769531 0 L 5.957031 0 L 5.957031 -5.308594 L 4.769531 -5.308594 L 4.769531 -4.410156 C 4.425781 -5.074219 3.71875 -5.46875 2.851562 -5.46875 C 1.429688 -5.46875 0.355469 -4.203125 0.355469 -2.65625 C 0.355469 -1.09375 1.421875 0.160156 2.855469 0.160156 Z M 3.15625 -0.996094 C 2.3125 -0.996094 1.597656 -1.621094 1.597656 -2.65625 C 1.597656 -3.652344 2.296875 -4.3125 3.15625 -4.3125 C 4.023438 -4.3125 4.714844 -3.578125 4.714844 -2.65625 C 4.714844 -1.714844 4.027344 -0.996094 3.15625 -0.996094 Z M 3.15625 -0.996094 "/></g></g><g transform="translate(51.116261, 20.266527)"><g/></g><g transform="translate(53.693964, 20.266527)"><g><path d="M 2.402344 0 L 2.402344 -4.242188 L 3.792969 -4.242188 L 3.792969 -5.308594 L 2.402344 -5.308594 L 2.402344 -5.515625 C 2.402344 -5.933594 2.648438 -6.300781 3.113281 -6.300781 L 3.816406 -6.300781 L 3.816406 -7.339844 L 2.800781 -7.339844 C 1.601562 -7.339844 1.152344 -6.425781 1.152344 -5.613281 L 1.152344 -5.308594 L 0.09375 -5.308594 L 0.09375 -4.242188 L 1.152344 -4.242188 L 1.152344 0 Z M 2.402344 0 "/></g></g><g transform="translate(57.568268, 20.266527)"><g><path d="M 1.984375 0 L 1.984375 -2.46875 C 1.984375 -3.601562 2.566406 -4.234375 3.425781 -4.234375 L 3.925781 -4.234375 L 3.925781 -5.308594 L 3.359375 -5.308594 C 2.664062 -5.308594 2.179688 -4.933594 1.933594 -4.347656 L 1.933594 -5.308594 L 0.734375 -5.308594 L 0.734375 0 Z M 1.984375 0 "/></g></g><g transform="translate(61.654367, 20.266527)"><g><path d="M 5.785156 -2.75 C 5.785156 -4.210938 4.710938 -5.46875 3.109375 -5.46875 C 1.511719 -5.46875 0.355469 -4.203125 0.355469 -2.65625 C 0.355469 -1.105469 1.511719 0.160156 3.109375 0.160156 C 4.433594 0.160156 5.378906 -0.710938 5.644531 -1.667969 L 4.28125 -1.667969 C 4.101562 -1.21875 3.714844 -0.957031 3.082031 -0.957031 C 2.351562 -0.957031 1.742188 -1.457031 1.613281 -2.324219 L 5.761719 -2.324219 C 5.78125 -2.519531 5.785156 -2.613281 5.785156 -2.75 Z M 1.664062 -3.289062 C 1.875 -4.039062 2.472656 -4.378906 3.105469 -4.378906 C 3.839844 -4.378906 4.457031 -3.882812 4.507812 -3.289062 Z M 1.664062 -3.289062 "/></g></g><g transform="translate(67.72411, 20.266527)"><g><path d="M 5.785156 -2.75 C 5.785156 -4.210938 4.710938 -5.46875 3.109375 -5.46875 C 1.511719 -5.46875 0.355469 -4.203125 0.355469 -2.65625 C 0.355469 -1.105469 1.511719 0.160156 3.109375 0.160156 C 4.433594 0.160156 5.378906 -0.710938 5.644531 -1.667969 L 4.28125 -1.667969 C 4.101562 -1.21875 3.714844 -0.957031 3.082031 -0.957031 C 2.351562 -0.957031 1.742188 -1.457031 1.613281 -2.324219 L 5.761719 -2.324219 C 5.78125 -2.519531 5.785156 -2.613281 5.785156 -2.75 Z M 1.664062 -3.289062 C 1.875 -4.039062 2.472656 -4.378906 3.105469 -4.378906 C 3.839844 -4.378906 4.457031 -3.882812 4.507812 -3.289062 Z M 1.664062 -3.289062 "/></g></g><g transform="translate(73.793852, 20.266527)"><g/></g><g transform="translate(76.371556, 20.266527)"><g><path d="M 3.097656 0.160156 C 4.464844 0.160156 5.464844 -0.710938 5.738281 -1.941406 L 4.46875 -1.941406 C 4.234375 -1.28125 3.710938 -0.996094 3.105469 -0.996094 C 2.339844 -0.996094 1.597656 -1.605469 1.597656 -2.65625 C 1.597656 -3.699219 2.335938 -4.308594 3.105469 -4.308594 C 3.710938 -4.308594 4.230469 -4.023438 4.46875 -3.433594 L 5.746094 -3.433594 C 5.445312 -4.601562 4.46875 -5.46875 3.097656 -5.46875 C 1.511719 -5.46875 0.355469 -4.199219 0.355469 -2.65625 C 0.355469 -1.105469 1.511719 0.160156 3.097656 0.160156 Z M 3.097656 0.160156 "/></g></g><g transform="translate(82.389641, 20.266527)"><g><path d="M 3.144531 0.160156 C 4.785156 0.160156 5.957031 -1.089844 5.957031 -2.65625 C 5.957031 -4.210938 4.785156 -5.46875 3.152344 -5.46875 C 1.523438 -5.46875 0.355469 -4.203125 0.355469 -2.65625 C 0.355469 -1.09375 1.527344 0.160156 3.144531 0.160156 Z M 3.15625 -1.003906 C 2.261719 -1.003906 1.597656 -1.695312 1.597656 -2.65625 C 1.597656 -3.609375 2.261719 -4.3125 3.15625 -4.3125 C 4.050781 -4.3125 4.714844 -3.609375 4.714844 -2.65625 C 4.714844 -1.695312 4.050781 -1.003906 3.15625 -1.003906 Z M 3.15625 -1.003906 "/></g></g><g transform="translate(88.702173, 20.266527)"><g><path d="M 1.984375 0 L 1.984375 -2.710938 C 1.984375 -3.75 2.65625 -4.320312 3.390625 -4.320312 C 4.144531 -4.320312 4.617188 -3.890625 4.617188 -2.835938 L 4.617188 0 L 5.867188 0 L 5.867188 -2.863281 C 5.867188 -4.53125 5.160156 -5.46875 3.734375 -5.46875 C 2.917969 -5.46875 2.226562 -5.0625 1.921875 -4.484375 L 1.921875 -5.308594 L 0.734375 -5.308594 L 0.734375 0 Z M 1.984375 0 "/></g></g><g transform="translate(95.262661, 20.266527)"><g><path d="M 2.644531 0.160156 C 3.925781 0.160156 4.875 -0.40625 4.875 -1.574219 C 4.875 -2.703125 4.019531 -3.023438 2.917969 -3.1875 C 2.003906 -3.332031 1.808594 -3.460938 1.808594 -3.859375 C 1.808594 -4.179688 2.046875 -4.449219 2.582031 -4.449219 C 3.160156 -4.449219 3.472656 -4.167969 3.496094 -3.777344 L 4.722656 -3.765625 C 4.722656 -4.777344 3.859375 -5.46875 2.578125 -5.46875 C 1.28125 -5.46875 0.578125 -4.808594 0.578125 -3.832031 C 0.578125 -2.734375 1.457031 -2.324219 2.480469 -2.191406 C 3.203125 -2.082031 3.601562 -1.953125 3.601562 -1.503906 C 3.601562 -1.101562 3.300781 -0.832031 2.65625 -0.832031 C 1.941406 -0.832031 1.582031 -1.199219 1.558594 -1.683594 L 0.363281 -1.6875 C 0.363281 -0.753906 1.085938 0.160156 2.644531 0.160156 Z M 2.644531 0.160156 "/></g></g><g transform="translate(100.438731, 20.266527)"><g><path d="M 3.121094 0.160156 C 4.523438 0.160156 5.609375 -0.582031 5.609375 -2.472656 L 5.609375 -5.308594 L 4.363281 -5.308594 L 4.363281 -2.511719 C 4.363281 -1.539062 3.953125 -1.003906 3.113281 -1.003906 C 2.285156 -1.003906 1.859375 -1.527344 1.859375 -2.511719 L 1.859375 -5.308594 L 0.621094 -5.308594 L 0.621094 -2.472656 C 0.621094 -0.582031 1.699219 0.160156 3.121094 0.160156 Z M 3.121094 0.160156 "/></g></g><g transform="translate(106.668612, 20.266527)"><g><path d="M 1.984375 0 L 1.984375 -7.277344 L 0.734375 -7.277344 L 0.734375 0 Z M 1.984375 0 "/></g></g><g transform="translate(109.380624, 20.266527)"><g><path d="M 4 0 L 4 -1.039062 L 3.175781 -1.039062 C 2.777344 -1.039062 2.40625 -1.21875 2.40625 -1.964844 L 2.40625 -4.234375 L 4 -4.234375 L 4 -5.308594 L 2.40625 -5.308594 L 2.40625 -6.875 L 1.15625 -6.867188 L 1.15625 -5.308594 L 0.0585938 -5.308594 L 0.0585938 -4.234375 L 1.15625 -4.234375 L 1.15625 -2.019531 C 1.15625 -0.269531 2.117188 0 2.917969 0 Z M 4 0 "/></g></g><g transform="translate(113.657856, 20.266527)"><g><path d="M 2.855469 0.160156 C 3.71875 0.160156 4.421875 -0.234375 4.769531 -0.894531 L 4.769531 0 L 5.957031 0 L 5.957031 -5.308594 L 4.769531 -5.308594 L 4.769531 -4.410156 C 4.425781 -5.074219 3.71875 -5.46875 2.851562 -5.46875 C 1.429688 -5.46875 0.355469 -4.203125 0.355469 -2.65625 C 0.355469 -1.09375 1.421875 0.160156 2.855469 0.160156 Z M 3.15625 -0.996094 C 2.3125 -0.996094 1.597656 -1.621094 1.597656 -2.65625 C 1.597656 -3.652344 2.296875 -4.3125 3.15625 -4.3125 C 4.023438 -4.3125 4.714844 -3.578125 4.714844 -2.65625 C 4.714844 -1.714844 4.027344 -0.996094 3.15625 -0.996094 Z M 3.15625 -0.996094 "/></g></g><g transform="translate(120.347487, 20.266527)"><g><path d="M 4 0 L 4 -1.039062 L 3.175781 -1.039062 C 2.777344 -1.039062 2.40625 -1.21875 2.40625 -1.964844 L 2.40625 -4.234375 L 4 -4.234375 L 4 -5.308594 L 2.40625 -5.308594 L 2.40625 -6.875 L 1.15625 -6.867188 L 1.15625 -5.308594 L 0.0585938 -5.308594 L 0.0585938 -4.234375 L 1.15625 -4.234375 L 1.15625 -2.019531 C 1.15625 -0.269531 2.117188 0 2.917969 0 Z M 4 0 "/></g></g><g transform="translate(124.624718, 20.266527)"><g><path d="M 1.347656 -6.136719 C 1.855469 -6.136719 2.136719 -6.453125 2.136719 -6.855469 C 2.136719 -7.242188 1.855469 -7.566406 1.351562 -7.566406 C 0.863281 -7.566406 0.578125 -7.242188 0.578125 -6.855469 C 0.578125 -6.457031 0.867188 -6.136719 1.347656 -6.136719 Z M 1.984375 0 L 1.984375 -5.308594 L 0.734375 -5.308594 L 0.734375 0 Z M 1.984375 0 "/></g></g><g transform="translate(127.336731, 20.266527)"><g><path d="M 3.144531 0.160156 C 4.785156 0.160156 5.957031 -1.089844 5.957031 -2.65625 C 5.957031 -4.210938 4.785156 -5.46875 3.152344 -5.46875 C 1.523438 -5.46875 0.355469 -4.203125 0.355469 -2.65625 C 0.355469 -1.09375 1.527344 0.160156 3.144531 0.160156 Z M 3.15625 -1.003906 C 2.261719 -1.003906 1.597656 -1.695312 1.597656 -2.65625 C 1.597656 -3.609375 2.261719 -4.3125 3.15625 -4.3125 C 4.050781 -4.3125 4.714844 -3.609375 4.714844 -2.65625 C 4.714844 -1.695312 4.050781 -1.003906 3.15625 -1.003906 Z M 3.15625 -1.003906 "/></g></g><g transform="translate(133.649263, 20.266527)"><g><path d="M 1.984375 0 L 1.984375 -2.710938 C 1.984375 -3.75 2.65625 -4.320312 3.390625 -4.320312 C 4.144531 -4.320312 4.617188 -3.890625 4.617188 -2.835938 L 4.617188 0 L 5.867188 0 L 5.867188 -2.863281 C 5.867188 -4.53125 5.160156 -5.46875 3.734375 -5.46875 C 2.917969 -5.46875 2.226562 -5.0625 1.921875 -4.484375 L 1.921875 -5.308594 L 0.734375 -5.308594 L 0.734375 0 Z M 1.984375 0 "/></g></g></g></svg>